<svg xmlns="http://www.w3.org/2000/svg" xmlns:xlink="http://www.w3.org/1999/xlink" aria-hidden="true" role="img" class="iconify iconify--logos" width="31.88" height="32" preserveAspectRatio="xMidYMid meet" viewBox="0 0 256 257"><defs><linearGradient id="IconifyId1813088fe1fbc01fb466" x1="-.828%" x2="57.636%" y1="7.652%" y2="78.411%"><stop offset="0%" stop-color="#41D1FF"></stop><stop offset="100%" stop-color="#BD34FE"></stop></linearGradient><linearGradient id="IconifyId1813088fe1fbc01fb467" x1="43.376%" x2="50.316%" y1="2.242%" y2="89.03%"><stop offset="0%" stop-color="#FFEA83"></stop><stop offset="8.333%" stop-color="#FFDD35"></stop><stop offset="100%" stop-color="#FFA800"></stop></linearGradient></defs><path fill="url(#IconifyId1813088fe1fbc01fb466)" d="M255.153 37.938L134.897 252.976c-2.483 4.44-8.862 4.466-11.382.048L.875 37.958c-2.746-4.814 1.371-10.646 6.827-9.67l120.385 21.517a6.537 6.537 0 007.991-5.835l11.58-121.033c.814-8.508 12.608-9.374 16.468-1.148l100.41 209.659c2.808 5.864-1.574 12.604-7.583 11.55z"></path><path fill="url(#IconifyId1813088fe1fbc01fb467)" d="M185.432.063L96.44 17.501a3.268 3.268 0 00-2.634 3.014l-5.474 92.456a3.268 3.268 0 003.997 3.378l24.777-5.718c2.318-.535 4.413 1.507 3.936 3.838l-7.361 36.047c-.495 2.426 1.782 4.5 4.151 3.78l15.906-4.828c2.372-.72 4.746 1.379 4.139 3.793l-12.206 58.894c-1.018 4.917 5.461 7.589 8.151 3.638l55.103-85.397c1.58-2.448-.541-5.607-3.479-5.031l-29.248 5.86a3.268 3.268 0 01-3.689-3.683l12.16-77.04c.503-3.186-3.214-5.347-5.874-3.328L185.432.063z"></path></svg>